#!OML:ASF X:\für Bonn\!DataBase\2005_08_10_Bjorn_Final\c3d\bjorn.ASF
:FULLY-SPECIFIED
:DEGREES
161
root 0.448631 19.518 2.12505 -167.463 -0.638649 -180.516
lowerback -3.93172 1.6909 4.72697
upperback 3.55817 1.85705 0.126277
thorax 6.06891 1.08253 -2.34941
lowerneck -4.6097 -1.94786 0.102645
upperneck 10.4713 -2.78055 -0.986053
head 4.24091 -1.5142 -0.497233
rclavicle -6.55989e-015 1.35174e-014
rhumerus 70.4903 3.16248 -72.6965
rradius 11.5318
rwrist 47.5811
rhand -12.6503 9.7058
rfingers 7.12502
rthumb 13.4303 -19.8412
lclavicle -6.55989e-015 1.35174e-014
lhumerus 73.1758 -14.6234 75.2945
lradius 7.3196
lwrist -46.8048
lhand -22.6482 -8.01899
lfingers 7.12502
lthumb 3.78285 21.9272
rfemur -23.7325 -15.1019 17.0362
rtibia 31.5106
rfoot -11.628 16.4251
rtoes -18.1126
lfemur -22.4107 8.46206 -18.8452
ltibia 30.4584
lfoot -10.6626 -11.1067
ltoes -6.71812
162
root 0.461501 19.5217 2.08728 -167.567 -0.770846 -180.477
lowerback -4.26979 1.66817 4.66909
upperback 3.2572 1.83898 0.108652
thorax 5.94069 1.07137 -2.33287
lowerneck -4.11716 -1.96069 0.0734143
upperneck 10.5503 -2.82279 -0.9598
head 4.17143 -1.54439 -0.479095
rclavicle -4.57205e-015 -1.66979e-014
rhumerus 70.1589 2.89046 -73.7166
rradius 11.5763
rwrist 49.0298
rhand -12.2119 9.62735
rfingers 7.12502
rthumb 13.8528 -19.8913
lclavicle -4.57205e-015 -1.66979e-014
lhumerus 73.1081 -14.6264 75.161
lradius 7.32252
lwrist -47.0083
lhand -22.2565 -8.02021
lfingers 7.12502
lthumb 4.16111 21.9189
rfemur -23.2417 -15.9315 17.1558
rtibia 31.0602
rfoot -11.3854 17.1687
rtoes -17.0393
lfemur -22.2112 9.99674 -18.8046
ltibia 30.3724
lfoot -10.0248 -12.9141
ltoes -5.11665
163
root 0.474251 19.5157 2.05514 -167.705 -0.904489 -180.483
lowerback -4.52412 1.63851 4.56184
upperback 2.97777 1.81546 0.0914621
thorax 5.78526 1.05399 -2.2908
lowerneck -3.60076 -1.98216 0.0400139
upperneck 10.4945 -2.86583 -0.97308
head 4.04881 -1.57421 -0.470929
rclavicle 8.34896e-015 -5.1684e-015
rhumerus 69.8911 2.65288 -74.5249
rradius 11.5842
rwrist 50.2596
rhand -11.9281 9.49216
rfingers 7.12502
rthumb 14.1262 -20.0076
lclavicle 8.34896e-015 -5.1684e-015
lhumerus 73.1253 -14.6246 75.0416
lradius 7.28599
lwrist -47.3494
lhand -21.7001 -7.98174
lfingers 7.12502
lthumb 4.69839 21.9462
rfemur -22.8145 -16.9034 17.228
rtibia 30.7148
rfoot -11.064 18.0697
rtoes -15.6251
lfemur -22.0748 11.6221 -18.8042
ltibia 30.4027
lfoot -9.34037 -14.8587
ltoes -3.22061
164
root 0.486355 19.5071 2.02537 -167.876 -1.00813 -180.46
lowerback -4.72561 1.63029 4.50931
upperback 2.71679 1.81703 0.0588734
thorax 5.62415 1.0507 -2.29404
lowerneck -3.14277 -2.01375 0.0251519
upperneck 10.4025 -2.91873 -0.99466
head 3.92521 -1.6067 -0.469349
rclavicle -4.37326e-015 6.75868e-015
rhumerus 69.6621 2.38625 -75.3395
rradius 11.5378
rwrist 51.3453
rhand -11.8206 9.32106
rfingers 7.12502
rthumb 14.2299 -20.1715
lclavicle -4.37326e-015 6.75868e-015
lhumerus 73.2533 -14.5968 74.8721
lradius 7.17571
lwrist -47.8108
lhand -21.0911 -7.99267
lfingers 7.12502
lthumb 5.28642 21.9214
rfemur -22.3312 -17.7932 17.3095
rtibia 30.4647
rfoot -11.0571 18.8732
rtoes -14.9746
lfemur -21.8037 13.1741 -18.7581
ltibia 30.4935
lfoot -9.12607 -16.5939
ltoes -2.65017
